<svg width="110" height="38" viewBox="0 0 110 38" fill="none" xmlns="http://www.w3.org/2000/svg">
<path d="M60.3366 18.5313L72.6966 37.2689H61.2123L54.3113 26.2035L47.359 37.2689H36.1326L48.4918 18.688L36.6478 0.733142H48.1313L54.4659 11.015L60.9543 0.733142H72.1815L60.3366 18.5313ZM19.365 0C8.24028 0 0 8.3516 0 19V19.1051C0 30.1709 8.34295 38 19.5703 38C26.1625 38 31.4158 35.5471 35.2274 32.3105V15.9206H22.2461L17.2236 23.3324H25.7508V27.77C24.3091 28.7618 22.4547 29.2831 19.9831 29.2831C14.2657 29.2831 10.1974 25.0548 10.1974 19.1051V19C10.1974 13.4156 14.2144 9.03012 19.4163 9.03012C21.9253 9.03012 23.9102 9.63838 25.7532 10.7465L30.9824 3.03526C27.819 1.08518 24.1126 0 19.365 0ZM109.128 18.8959V19C109.128 29.4913 100.969 38 90.0884 38C79.2099 38 71.1511 29.5955 71.1511 19.1041V19C71.1511 8.50867 79.3104 1.45378e-06 90.1909 1.45378e-06C101.069 9.94691e-07 109.128 8.40454 109.128 18.8959ZM99.1049 19C99.1049 13.6768 95.4794 9.13555 90.0884 9.13555C84.6994 9.13555 81.1231 13.6236 81.1231 18.8959V19C81.1231 24.2722 84.7999 28.8644 90.1909 28.8644C95.5286 28.8644 99.1049 24.3764 99.1049 19.1041V19Z" fill="#FF3A00"/>
</svg>
